<svg width="165" height="58" viewBox="0 0 165 58" fill="none" xmlns="http://www.w3.org/2000/svg">
<path d="M17.96 25.16C18.1733 25.5333 18.3467 26.08 18.48 26.8C18.6133 27.4933 18.68 28.12 18.68 28.68C18.68 29.72 18.4533 31.2 18 33.12C16.16 36.48 13.44 38.16 9.84 38.16C8.50667 38.16 7.14667 37.72 5.76 36.84C4.37333 35.96 3.41333 34.9467 2.88 33.8C2.16 31.5067 1.8 30.0533 1.8 29.44C1.8 28.3733 2.02667 27.24 2.48 26.04C2.96 24.84 3.56 23.8 4.28 22.92C4.73333 22.3067 5.54667 21.7867 6.72 21.36C7.89333 20.9067 8.96 20.68 9.92 20.68C11.7867 20.68 13.3733 21.04 14.68 21.76C15.9867 22.4533 17.08 23.5867 17.96 25.16ZM14.48 31.6C14.6133 31.2533 14.68 30.36 14.68 28.92C14.68 28.1467 14.5333 27.3867 14.24 26.64C13.9733 25.8933 13.5733 25.2533 13.04 24.72C12.9867 24.6667 12.84 24.5867 12.6 24.48C12.36 24.3467 12.0267 24.2267 11.6 24.12C11.2 23.9867 10.7333 23.92 10.2 23.92C8.70667 23.92 7.61333 24.52 6.92 25.72C6.22667 26.92 5.88 28.28 5.88 29.8C5.88 30.0667 5.94667 30.5733 6.08 31.32C6.24 32.0667 6.37333 32.5333 6.48 32.72C6.56 32.9067 6.76 33.1733 7.08 33.52C7.42667 33.84 7.84 34.1333 8.32 34.4C8.82667 34.64 9.34667 34.76 9.88 34.76C11.08 34.76 12.04 34.48 12.76 33.92C13.48 33.3333 14.0533 32.56 14.48 31.6ZM47.8288 36.6C47.4288 35.8533 47.1754 35.0267 47.0688 34.12C46.9621 33.1867 46.9088 31.9067 46.9088 30.28C46.9088 28.7333 46.6954 27.3867 46.2688 26.24C45.8421 25.0933 44.9621 24.52 43.6288 24.52C43.1221 24.52 42.6154 24.68 42.1088 25C41.6288 25.2933 41.2688 25.6667 41.0287 26.12C40.6554 26.84 40.4021 27.6267 40.2688 28.48C40.1354 29.3067 40.0688 30.2667 40.0688 31.36C40.0688 32.0533 40.1088 32.76 40.1888 33.48C40.1888 33.6933 40.2021 34.04 40.2288 34.52C40.2821 34.9733 40.3088 35.3867 40.3088 35.76C40.3088 37.36 39.7488 38.16 38.6288 38.16C37.1621 38.16 36.3888 37.3867 36.3088 35.84C36.3088 34.7467 36.3221 34.16 36.3488 34.08V32.36C36.3488 31.4 36.3088 30.4667 36.2288 29.56C36.1488 28.6533 36.0554 27.9733 35.9488 27.52C35.7088 26.64 35.3888 25.96 34.9888 25.48C34.6154 25 34.0154 24.76 33.1888 24.76C32.0154 24.76 31.0688 25.2667 30.3488 26.28C29.8421 27.08 29.5088 28.0533 29.3488 29.2C29.1888 30.6667 29.0688 31.8267 28.9888 32.68C28.9354 33.5067 28.9088 34.4667 28.9088 35.56C28.9088 36.3333 28.7754 36.96 28.5088 37.44C28.2688 37.92 27.8021 38.16 27.1088 38.16C26.6021 38.16 26.0688 38.0267 25.5088 37.76C24.9754 37.4667 24.7088 37.08 24.7088 36.6C24.7088 36.0933 24.7621 35.5867 24.8688 35.08C25.1088 33.56 25.2288 30.84 25.2288 26.92C25.2288 26.28 25.0688 25.6667 24.7488 25.08C24.4554 24.4667 24.0954 24.16 23.6688 24.16C23.5621 24.16 23.3621 24.2133 23.0688 24.32C22.8021 24.4267 22.6021 24.48 22.4688 24.48C22.1221 24.48 21.8021 24.32 21.5088 24C21.2421 23.68 21.1088 23.4133 21.1088 23.2C21.1088 22.5333 21.4288 21.9733 22.0688 21.52C22.7354 21.04 23.4288 20.8 24.1488 20.8C25.1354 20.8 25.9754 21.1067 26.6688 21.72C27.3621 22.3333 27.8954 23.1867 28.2688 24.28C28.8821 23.2133 29.7088 22.36 30.7487 21.72C31.7888 21.0533 32.9488 20.72 34.2288 20.72C35.0288 20.72 35.6688 20.8267 36.1488 21.04C36.6554 21.2267 37.0688 21.5067 37.3888 21.88C37.7088 22.2267 38.1221 22.76 38.6288 23.48C39.2954 22.6267 40.1488 21.96 41.1888 21.48C42.2554 21 43.3488 20.76 44.4688 20.76C45.8021 20.76 47.0021 21.3067 48.0688 22.4C49.1354 23.4667 49.8554 24.7067 50.2288 26.12C50.4154 26.84 50.5088 28.2267 50.5088 30.28L50.6688 32.6C50.8021 33.9867 51.2554 34.8267 52.0288 35.12C52.9354 35.3867 53.3888 35.6667 53.3888 35.96C53.3888 36.6 53.2288 37.0667 52.9088 37.36C52.6688 37.52 52.3354 37.6933 51.9088 37.88C51.4821 38.0667 51.1488 38.16 50.9088 38.16C49.4688 38.16 48.4421 37.64 47.8288 36.6ZM55.9016 23.92C55.6882 23.76 55.5149 23.6 55.3816 23.44C55.2482 23.2533 55.1816 22.9333 55.1816 22.48C55.1816 21.9733 55.3549 21.5867 55.7016 21.32C56.0749 21.0267 56.5016 20.88 56.9816 20.88C57.9149 20.88 58.7149 21.12 59.3816 21.6C60.0749 22.08 60.5816 22.7467 60.9016 23.6C61.4882 22.5067 62.2349 21.76 63.1416 21.36C64.0482 20.9333 65.3016 20.72 66.9016 20.72C67.5416 20.72 68.1949 20.92 68.8616 21.32C69.5549 21.6933 70.1816 22.16 70.7416 22.72C71.1949 23.3067 71.5816 24.04 71.9016 24.92C72.2216 25.7733 72.3816 26.5467 72.3816 27.24C72.3816 27.64 72.3549 28.2933 72.3016 29.2C72.2482 30.16 72.2216 30.92 72.2216 31.48C72.2216 33.3467 72.5816 34.4933 73.3016 34.92C73.4082 34.9733 73.6082 35.04 73.9016 35.12C74.1949 35.2 74.4082 35.28 74.5416 35.36C74.7016 35.44 74.7816 35.56 74.7816 35.72C74.8082 36.36 74.5682 36.8933 74.0616 37.32C73.5816 37.72 72.9949 37.92 72.3016 37.92C71.2616 37.92 70.4482 37.64 69.8616 37.08C69.2749 36.52 68.8616 35.6667 68.6216 34.52C68.4882 34.0933 68.4216 33.4667 68.4216 32.64C68.4216 32.1867 68.4482 31.4533 68.5016 30.44C68.5816 29.64 68.6216 28.7867 68.6216 27.88C68.6216 26.9467 68.3549 26.1333 67.8216 25.44C67.2882 24.72 66.5549 24.36 65.6216 24.36C65.0616 24.36 64.4749 24.5333 63.8616 24.88C63.2482 25.2 62.8216 25.6 62.5816 26.08C62.1816 26.9067 61.9149 27.7467 61.7816 28.6C61.4616 30.2533 61.3016 31.84 61.3016 33.36C61.3016 33.7333 61.3282 34.4533 61.3816 35.52C61.3816 35.6 61.3816 35.8 61.3816 36.12C61.3816 36.4133 61.3416 36.6933 61.2616 36.96C61.2082 37.2267 61.1016 37.4667 60.9416 37.68C60.8349 37.7867 60.6349 37.8933 60.3416 38C60.0482 38.1067 59.7949 38.16 59.5816 38.16C59.2082 38.16 58.7416 38 58.1816 37.68C57.6216 37.36 57.2882 37 57.1816 36.6L57.1416 36.04C57.1416 35.8267 57.1682 35.5067 57.2216 35.08C57.5416 33.2133 57.7016 31.5867 57.7016 30.2C57.7016 29.5867 57.6882 29.12 57.6616 28.8L57.6216 26.96C57.6216 26.4 57.4616 25.8667 57.1416 25.36C56.8216 24.8267 56.4082 24.3467 55.9016 23.92ZM79.5897 12.32C80.523 12.4 81.3364 12.6533 82.0297 13.08C82.723 13.48 83.0697 14.0933 83.0697 14.92C83.0697 15.5333 82.7764 16.0267 82.1897 16.4C81.6297 16.7467 80.9497 16.92 80.1497 16.92C79.3764 16.92 78.843 16.72 78.5497 16.32C78.2564 15.92 78.1097 15.5067 78.1097 15.08C78.1097 14.28 78.1897 13.6133 78.3497 13.08C78.5364 12.5467 78.9497 12.2933 79.5897 12.32ZM82.7897 30.04V31.2C82.7897 32.24 82.8164 33.2267 82.8697 34.16C82.9497 35.0667 83.043 35.9867 83.1497 36.92C83.1497 37.24 82.963 37.5333 82.5897 37.8C82.2164 38.04 81.8697 38.16 81.5497 38.16C81.043 38.16 80.523 38.0667 79.9897 37.88C79.483 37.6667 79.1764 37.4133 79.0697 37.12C78.9097 36.2667 78.8297 35.5067 78.8297 34.84C78.8297 32.6533 78.763 30.2 78.6297 27.48C78.523 25.08 78.4697 23.4 78.4697 22.44C78.4697 21.96 78.7097 21.5467 79.1897 21.2C79.6697 20.8533 80.1764 20.68 80.7097 20.68C81.483 20.68 82.0164 20.8533 82.3097 21.2C82.6297 21.5467 82.7897 22.0933 82.7897 22.84V30.04ZM105.944 36.08C105.944 36.6667 105.624 37.16 104.984 37.56C104.344 37.96 103.757 38.16 103.224 38.16C102.237 38.16 101.437 38.04 100.824 37.8C100.237 37.5333 99.6774 37.0533 99.1441 36.36C98.4774 36.9733 97.5441 37.44 96.3441 37.76C95.1441 38.0533 94.0374 38.2 93.0241 38.2C91.3707 38.2 89.9974 37.76 88.9041 36.88C87.8374 35.9733 87.3041 34.6533 87.3041 32.92C87.3041 32.1733 87.5307 31.4267 87.9841 30.68C88.4374 29.9067 88.9974 29.2933 89.6641 28.84C90.3841 28.36 91.1974 28.04 92.1041 27.88C93.0107 27.6933 94.0641 27.6 95.2641 27.6C95.8241 27.6 96.4907 27.7067 97.2641 27.92C98.0374 28.1333 98.6507 28.36 99.1041 28.6V27.96C99.1041 26.52 98.7441 25.5333 98.0241 25C97.3307 24.44 96.2107 24.16 94.6641 24.16C94.1841 24.16 93.7441 24.24 93.3441 24.4C92.9707 24.5333 92.5307 24.7333 92.0241 25C91.5441 25.2667 91.0907 25.4 90.6641 25.4C90.2907 25.4 89.9307 25.2533 89.5841 24.96C89.2374 24.64 89.0641 24.3067 89.0641 23.96C89.0641 22.84 89.7574 22.0267 91.1441 21.52C92.5574 20.9867 93.9974 20.72 95.4641 20.72C96.2107 20.72 97.0641 20.88 98.0241 21.2C98.9841 21.4933 99.7974 21.9067 100.464 22.44C101.264 23.1067 101.877 23.9067 102.304 24.84C102.757 25.7733 102.984 26.7867 102.984 27.88C102.984 28.2267 102.957 28.7467 102.904 29.44C102.851 30.1867 102.824 30.8267 102.824 31.36L102.784 32.44C102.731 33.0267 102.704 33.4933 102.704 33.84C102.704 34.16 102.811 34.44 103.024 34.68C103.264 34.8933 103.544 35 103.864 35L104.984 34.96C105.277 34.96 105.504 35.08 105.664 35.32C105.851 35.5333 105.944 35.7867 105.944 36.08ZM93.0241 35.04C94.1707 35.04 95.1307 34.92 95.9041 34.68C96.6774 34.44 97.6107 34 98.7041 33.36C98.8107 32.9067 98.8774 32.3067 98.9041 31.56C97.4374 30.8667 96.2241 30.52 95.2641 30.52C94.3574 30.52 93.6241 30.56 93.0641 30.64C92.5041 30.6933 91.9974 30.92 91.5441 31.32C91.0907 31.72 90.8641 32.36 90.8641 33.24C90.8641 33.7467 91.1041 34.1733 91.5841 34.52C92.0907 34.8667 92.5707 35.04 93.0241 35.04Z" fill="#212529"/>
<path d="M4.10156 53.75L4.39453 54.5H5.25L3.75 50.75H3L1.5 54.5H2.35547L2.64844 53.75H4.10156ZM2.94141 53L3.375 51.875L3.80859 53H2.94141ZM16.5 50.75V54.5H20.25V50.75H16.5ZM19.5 51.5V52.25H17.25V51.5H19.5ZM19.5 53V53.75H17.25V53H19.5ZM24 54.5H27.75V53.75H24.75V50.75H24V54.5ZM35.25 54.5V50.75H31.5V54.5H35.25ZM32.25 53.75V51.5H34.5V53.75H32.25ZM42.75 52.25H41.25V53H42V53.75H39.75V51.5H42.75V50.75H39V54.5H42.75V52.25ZM54 50.75V54.5H57.75V50.75H57V53.75H56.25V50.75H55.5V53.75H54.75V50.75H54ZM63 50.75V54.5H63.75V50.75H63ZM69 51.5H70.5V54.5H71.25V51.5H72.75V50.75H69V51.5ZM76.5 50.75V54.5H77.25V53H79.5V54.5H80.25V50.75H79.5V52.25H77.25V50.75H76.5ZM91.5 54.5H95.25V53.75H92.25V53H95.25V52.25H92.25V51.5H95.25V50.75H91.5V54.5ZM100.5 54.5H101.25L102.75 50.75H101.895L100.875 53.375L99.8555 50.75H99L100.5 54.5ZM106.5 54.5H110.25V53.75H107.25V53H110.25V52.25H107.25V51.5H110.25V50.75H106.5V54.5ZM117 51.5V52.25H114.75V51.5H117ZM116.824 54.5H117.75L116.426 53H117.75V50.75H114V54.5H114.75V53H115.5L116.824 54.5ZM123.75 54.5V53L125.25 50.75H124.324L123.375 52.0625L122.438 50.75H121.5L123 53V54.5H123.75ZM129 51.5H130.5V54.5H131.25V51.5H132.75V50.75H129V51.5ZM136.5 50.75V54.5H137.25V53H139.5V54.5H140.25V50.75H139.5V52.25H137.25V50.75H136.5ZM145.5 50.75V54.5H146.25V50.75H145.5ZM152.25 54.5V51.9219L154.5 54.5H155.25V50.75H154.5V53.4102L152.25 50.75H151.5V54.5H152.25ZM162.75 52.25H161.25V53H162V53.75H159.75V51.5H162.75V50.75H159V54.5H162.75V52.25Z" fill="#212529"/>
</svg>
